# xmcd CD database file
#
# Track frame offsets:
#	150
#	26490
#	42450
#	60730
#	84890
#	105242
#	128942
#	150097
#	160070
#	183655
#	209187
#
# Disc length: 3211 seconds
#
# Revision: 2
# Processed by: cddbd v1.5.2PL0 Copyright (c) Steve Scherf et al.
# Submitted via: CDex 1.51
#
DISCID=880c890b
DTITLE=Stan Getz - Jazz Moods - Cool
DYEAR=2004
DGENRE=Jazz
TTITLE0=1977 - Lester Left Town 
TTITLE1=1976 - Double Rainbow
TTITLE2=1964 - Sometime Ago
TTITLE3=1976 - Ligia 
TTITLE4=1964 - Out Of This World  [Released 1983]
TTITLE5=1964 - Misty
TTITLE6=1976 - Aguas De Marco
TTITLE7=1964 - Have You Met Miss Jones  [Released 1983]
TTITLE8=1976 - Eu Preciso Perdoar 
TTITLE9=1977 - The Peacocks
TTITLE10=1964 - Who Cares
EXTD=YEAR: 2004
EXTT0=
EXTT1=
EXTT2=
EXTT3=
EXTT4=
EXTT5=
EXTT6=
EXTT7=
EXTT8=
EXTT9=
EXTT10=
PLAYORDER=
